<?xml version="1.0" encoding="utf-8"?>
<!-- Generator: Adobe Illustrator 15.0.0, SVG Export Plug-In . SVG Version: 6.00 Build 0)  -->
<!DOCTYPE svg PUBLIC "-//W3C//DTD SVG 1.1//EN" "http://www.w3.org/Graphics/SVG/1.1/DTD/svg11.dtd">
<svg version="1.1" id="Layer_1" xmlns="http://www.w3.org/2000/svg" xmlns:xlink="http://www.w3.org/1999/xlink" x="0px" y="0px"
	 width="141.73px" height="141.73px" viewBox="0 0 141.73 141.73" enable-background="new 0 0 141.73 141.73" xml:space="preserve">
<g>
	<path d="M22.252,61.644c-2.65-1.472-5.3-4.613-5.3-9.324c0-5.692,4.613-10.011,10.207-10.011c3.435,0,5.987,1.374,7.95,3.533
		c0.687-0.393,1.472-0.589,2.355-0.589c1.57,0,2.846,0.785,3.533,1.57c0.491-0.196,0.981-0.294,1.668-0.294
		c2.061,0,4.024,1.57,4.024,4.024c0,1.767-0.981,3.141-1.963,4.122c-0.491,0.491-0.687,0.785-0.785,1.472
		c-0.196,1.57,0.294,3.828,1.178,5.104c0.491,0.687,0.981,1.08,2.257,0.981c3.141-0.196,8.735-0.687,14.525-0.687
		c4.907,0,8.44,0.098,10.404,0c3.729-1.178,7.36-2.257,11.679-3.337c1.57-0.393,4.024-0.883,5.202-2.257
		c-1.178,0.687-3.338,1.178-5.202,1.374c-2.649,0.393-5.889,0.981-7.753,1.276c-0.688,0.098-1.08-0.098-1.08-0.589l-0.196-5.005
		c0-0.294,0.099-0.393,0.294-0.393c0.197,0,0.295,0.098,0.491,0.196c0.884,0.491,1.767,0.785,3.141,0.785
		c0.981,0,1.864-0.393,1.864-1.178c-0.098-0.687-0.785-1.276-2.061-1.276c-3.436,0-5.692,2.748-9.913,2.748
		c-3.533,0-5.791-2.257-5.791-4.809c0-1.865,1.08-3.239,2.748-3.926c-0.589,0.883-0.785,1.472-0.785,2.257
		c0,1.865,1.963,3.239,5.005,3.239c3.239,0,5.005-0.785,7.459-0.785c1.963,0,3.336,0.589,3.729,1.276
		c-0.098-1.767-1.373-3.042-3.336-3.042c-0.982,0-1.963,0.491-2.355,1.178c-0.099,0.196-0.197,0.294-0.393,0.294
		c-0.197,0-0.295-0.098-0.295-0.294l-0.688-5.692c-0.098-0.687,0.197-1.276,1.08-1.374l3.926-0.393l-2.552-5.104h5.005
		c0,0.981,0.688,1.668,1.473,1.668s1.473-0.687,1.473-1.668h4.22c0,0.981,0.589,1.668,1.472,1.668c0.688,0,1.375-0.687,1.375-1.668
		h5.104l-2.945,5.889c6.674,2.65,11.483,8.931,11.483,16.292c0,6.478-2.159,10.109-5.202,14.231
		c-0.883,1.079-1.373,2.257-1.373,4.809c0,5.692,5.104,10.305,11.777,10.305c3.238,0,5.594-0.49,8.047-1.668
		c-0.49,0.098-1.079,0.098-1.668,0.098c-6.281,0-12.072-5.005-12.072-11.777c0-5.496,3.043-9.127,7.066-11.973
		c0.785-0.589,1.669-1.178,2.454-1.767c-2.552-2.159-4.22-4.417-4.318-7.263c-1.669-0.589-2.944-2.061-2.944-4.122
		c0-2.748,2.453-5.104,5.496-5.104c2.159,0,3.828,0.883,4.907,1.767c-1.767,1.276-3.141,3.141-3.141,5.594
		c0,2.748,1.864,4.809,4.22,6.379c2.355-1.57,4.318-3.631,4.318-6.379c0-2.454-1.373-4.318-3.141-5.594
		c1.08-0.883,2.748-1.767,4.908-1.767c3.042,0,5.496,2.355,5.496,5.104c0,2.061-1.276,3.533-2.945,4.122
		c-0.098,3.042-1.864,5.3-4.612,7.557c5.202,4.024,9.226,7.852,9.226,13.838c0,9.227-8.734,18.256-21.788,18.256
		c-2.062,0-3.337-0.295-4.515-0.59c1.08,1.57,2.159,3.141,2.65,5.693c0.98,0.294,3.926,0.49,5.986,0.49
		c3.729,0,8.833-1.374,10.109-2.846c0.49,0.98,0.98,2.355,0.98,3.729c0,2.355-1.766,3.73-3.827,4.123
		c0.785,6.084,1.57,12.955,1.57,18.254c0,7.264-2.454,10.109-5.987,10.502c0.197-0.196,0.295-0.49,0.295-0.883
		c0-1.669-1.57-2.847-3.337-2.847c-2.944,0-4.122,1.472-7.165,1.472c-2.453,0-3.336-1.472-5.496-1.472
		c-1.373,0-2.355,0.981-2.355,2.159c0,0.589,0.197,1.08,0.59,1.57c-2.748-0.098-5.006-2.552-5.006-5.104
		c0-0.883,0.196-1.57,0.589-2.355c-0.687-0.688-1.276-1.767-1.276-3.043c0-1.57,1.178-2.846,2.847-3.238
		c0.196-2.061,1.963-3.631,4.122-3.631c2.552,0,4.221,1.668,5.104,4.22c0.196,0.589,0.393,0.785,0.981,0.785
		c1.079,0.099,2.552-0.099,3.435-0.294c0.491-0.099,0.785-0.491,0.785-0.884c-0.098-2.847-0.687-6.87-1.275-9.226
		c-0.981,0.098-3.926,0.295-5.594,0.295c-4.318,0-8.441-1.865-10.6-6.772c-6.281,0.393-12.562,0.294-18.648-0.294
		c-0.098,0.294-0.098,0.49-0.098,0.687c0,1.178,0.981,2.355,2.355,2.355c1.275,0,2.258-0.491,2.748-1.178
		c0.295,0.785,0.49,1.767,0.49,2.748c0,2.454-1.864,4.024-4.22,4.024c-0.491,0-0.981-0.099-1.178-0.197
		c-0.099,4.123,0.294,8.735,0.294,13.054c0,3.435-1.963,7.165-6.379,8.048c0.196-0.196,0.294-0.49,0.294-0.883
		c0-1.669-1.57-2.847-3.337-2.847c-2.944,0-4.122,1.472-7.165,1.472c-2.454,0-3.337-1.472-5.496-1.472
		c-1.374,0-2.355,0.981-2.355,2.159c0,0.589,0.196,1.08,0.589,1.57c-1.963-0.098-3.239-1.374-4.515-2.453l-3.729-3.239l-6.87-30.522
		l-2.846-1.865l-0.981-4.515c-1.963-1.374-2.944-2.944-2.944-5.005c0-1.178,0.491-2.062,1.08-2.748
		c-0.294-0.982-0.393-2.062-0.393-3.043l-2.257-10.305l-5.791,25.616l-2.846,1.865l-7.263,31.014l-6.674,5.201L22.252,61.644z
		 M10.868,127.204l7.263-31.112l2.846-1.963l6.379-27.774l-0.785-3.435c-0.981-0.098-2.061-0.393-3.141-0.785L7.334,130.051
		L10.868,127.204z M34.128,77.053c0.196,0,0.393,0,0.687,0.098c0.098-0.785,0.393-1.374,0.785-1.767l-3.435-15.899
		c0.589-0.393,1.276-0.981,1.57-1.472c-0.196-1.472-0.393-3.337-1.08-4.515c-0.393,2.65-2.65,4.22-5.202,4.22
		c-2.748,0-5.202-2.257-5.202-5.202c0-2.846,2.355-5.104,5.202-5.104c1.178,0,2.257,0.393,3.239,1.08
		c0.883-0.687,1.963-0.883,2.944-0.883c0.098-0.294,0.294-0.589,0.491-0.883c-1.767-2.061-4.024-3.042-6.968-3.042
		c-5.005,0-8.931,3.926-8.931,8.735c0,5.005,3.926,9.029,8.735,9.029h0.589l3.729,16.979C31.674,77.838,32.656,77.053,34.128,77.053
		z M31.576,53.399c0-0.393-0.294-0.589-0.687-0.589c-0.687,0-1.178,0.589-1.472,1.472c-0.294-0.785-0.491-1.472-0.491-2.159
		c0-0.981,0.294-1.963,0.883-2.748c-0.687-0.491-1.374-0.687-2.159-0.687c-2.159,0-3.926,1.668-3.926,3.828s1.767,3.926,3.926,3.926
		C29.711,56.442,31.576,54.675,31.576,53.399z M62.884,72.636c0.294-3.435,2.355-7.459,6.674-9.618
		c-2.355-0.098-5.005-0.196-8.244-0.196c-4.515,0-9.618,0.294-14.035,0.687c-1.57,0.098-2.552-0.589-3.337-1.668
		c-1.08-1.57-1.472-3.926-1.374-5.692c0.098-1.08,0.589-1.668,1.374-2.454s1.374-1.767,1.374-3.141c0-1.767-1.374-3.042-2.846-3.042
		c-0.491,0-0.883,0.098-1.08,0.196c0.294,0.491,0.589,1.08,0.589,2.061c0,1.472-0.589,2.944-1.668,4.22
		c0.589-1.57,0.785-2.355,0.785-3.533c0-2.355-1.668-4.22-3.828-4.22c-1.08,0-2.257,0.589-2.748,1.57
		c2.061,0.687,3.435,2.552,3.435,4.711c0,1.276-0.393,2.257-0.785,3.239c0.098-0.785,0.098-1.374,0.098-1.963
		c0-2.65-1.57-5.005-3.926-5.005c-2.65,0-3.828,1.865-3.729,3.828c0.294-0.294,0.883-0.687,1.865-0.687
		c1.276,0,2.748,0.687,3.141,3.435c0.491,3.729,1.178,5.692,2.355,7.852c0.491,0.981,0.981,2.061,0.981,3.337
		c0,1.374-0.883,2.552-1.865,3.141c0.981,1.276,2.65,1.865,5.104,1.865c1.668,0,3.141-0.294,5.3-0.294
		c4.809,0,8.833,1.178,11.385,4.515C59.646,74.599,61.118,73.715,62.884,72.636z M48.555,96.19c0.883-1.079,2.257-3.042,4.122-4.711
		c1.767-1.57,3.435-2.748,5.3-3.729c1.374-0.688,2.748-1.178,3.926-1.178c1.963,0,3.042,1.178,3.042,2.159
		c1.767-0.981,3.337-1.864,5.202-2.649c-4.711-2.355-6.968-6.674-7.361-11.582c-4.417,2.258-9.52,6.281-13.74,9.814
		c-1.472,1.178-2.748,1.178-4.22,0.688c-1.08-0.393-2.355-1.374-2.944-2.453c-0.196-0.393-0.294-0.884-0.294-1.375l0.098-2.061
		c0.098-2.159-1.57-3.436-3.239-3.436c-1.178,0-2.257,0.393-2.748,1.57c1.767,0.688,3.337,2.454,3.533,5.595
		c-1.472-3.533-3.141-4.612-4.711-4.612c-2.552,0-3.337,2.355-3.239,3.827c0.589-0.294,1.276-0.491,2.061-0.491
		c2.355,0,4.122,1.768,4.613,4.123c-1.472-2.062-2.65-2.945-4.613-2.945c-1.668,0-2.748,1.276-2.748,2.847
		c0,1.374,0.393,2.649,1.963,3.827c-0.098-1.373,0.785-2.551,2.159-2.551s2.159,0.687,3.042,1.766
		c1.767,2.258,3.337,3.436,5.202,4.417c1.472,0.785,1.963,1.963,1.963,2.944c0,0.589-0.196,1.275-0.589,1.865
		c0.294,0.195,0.687,0.195,1.178,0.195C46.494,98.055,47.672,97.368,48.555,96.19z M36.778,66.551c0-0.785-0.393-1.668-0.687-2.355
		c-0.687-1.472-1.472-3.042-1.963-4.613l-0.589,0.589l1.963,8.637C35.993,68.612,36.778,67.63,36.778,66.551z M46.396,127.793
		c0-0.883,0.196-1.57,0.589-2.355c-0.687-0.688-1.276-1.767-1.276-3.043c0-0.49,0.098-0.883,0.294-1.275l-6.576-29.051
		c-0.785-0.688-1.767-1.767-2.552-2.65c-0.785-0.98-1.374-1.373-2.159-1.373c-0.687,0-1.276,0.588-1.08,1.668l0.981,4.416
		l2.846,1.963l6.87,30.621l2.159,1.865C46.396,128.283,46.396,128.088,46.396,127.793z M48.359,83.334
		c2.355-2.062,5.3-4.417,8.539-6.871c-2.355-2.748-6.183-3.827-10.305-3.827c-3.042,0-4.318,0.196-5.692,0.196
		c-1.767,0-3.926-0.589-5.005-1.865l0.883,3.828c0.393-0.196,1.178-0.393,1.865-0.393c2.061,0,4.22,1.473,4.22,4.221
		c0,0.785-0.196,1.766-0.196,2.257s0.098,0.884,0.294,1.178c0.491,0.687,1.57,1.57,2.454,1.864
		C46.396,84.217,47.279,84.217,48.359,83.334z M62.492,120.236c0.491-0.099,0.785-0.491,0.785-0.982
		c-0.098-5.594-1.276-12.856-1.276-18.353c0-4.122,1.08-7.165,5.791-8.735c4.318-1.472,9.716-2.158,12.562-2.158
		c0.59,0,1.276,0,2.65,0.195c-4.221-1.668-7.655-2.551-11.09-3.336c-2.454,0.883-5.496,2.551-8.44,4.22
		c0.196-0.491,0.294-0.884,0.294-1.374c0-0.883-0.589-1.767-1.865-1.767c-1.178,0-2.355,0.491-3.337,0.981
		c-1.668,0.883-3.631,2.159-5.005,3.436c-1.865,1.668-3.239,3.435-4.024,4.416c-1.178,1.473-2.748,2.355-4.417,2.355
		c-0.883,0-1.668-0.196-2.355-0.688c0.491-0.49,0.981-1.079,0.981-2.061c0-0.785-0.393-1.57-0.981-2.061
		c-0.589-0.491-1.276-0.785-1.767-1.178l5.987,26.695c0.393-0.295,0.883-0.491,1.57-0.688c0.196-2.061,1.963-3.631,4.122-3.631
		c2.552,0,4.22,1.668,5.104,4.22c0.196,0.589,0.393,0.785,0.981,0.785C59.842,120.629,61.608,120.432,62.492,120.236z
		 M49.831,130.443c0-1.57,1.472-2.748,3.337-2.748c2.454,0,3.828,1.57,5.889,1.57c2.454,0,3.141-1.473,6.576-1.473
		c2.552,0,4.417,1.57,4.515,3.337c1.962-0.785,3.631-3.239,3.631-6.281c0-4.024-0.196-9.521-0.196-14.525
		c0.688,0.196,1.374,0.393,2.552,0.393c1.864,0,2.944-1.178,2.944-2.552c0-0.393,0-0.688-0.098-0.981
		c-0.688,0.294-1.375,0.393-1.963,0.393c-1.865,0-3.533-1.472-3.632-4.122c0-0.49,0-0.883,0.099-1.275
		c5.104,0.393,10.697,0.687,15.801,0.393c-1.473-0.59-2.061-1.865-2.061-2.945c0-0.785,0.49-1.472,1.178-1.766
		c-1.276-2.945-3.632-5.202-5.693-6.576c-3.729-0.196-9.814,0.688-14.329,2.061c-4.122,1.276-4.907,4.318-4.907,7.558
		c0,4.515,0.883,11.483,0.883,18.451c0,0.981-0.393,1.57-1.178,1.864c-1.08,0.491-3.239,0.785-4.711,0.59
		c-0.883-0.099-1.374-0.393-1.767-1.473c-0.785-2.258-2.257-3.631-4.024-3.631c-1.865,0-2.846,1.373-3.141,2.355
		c3.042,0,5.005,1.57,6.085,3.631c-1.767-1.57-3.533-2.552-5.692-2.552c-1.963,0-3.141,1.276-3.141,2.649
		c0,0.688,0.098,1.57,0.589,2.062c0.687-0.981,2.355-1.57,3.631-1.57c2.061,0,3.337,1.079,3.828,2.062
		c-1.08-0.785-2.159-1.08-3.435-1.08c-1.963,0-3.729,1.473-3.729,3.436s0.981,3.533,2.65,4.416
		C50.027,131.621,49.831,131.031,49.831,130.443z M74.858,51.044c-2.847,0.589-4.22,0.785-5.104,0.785
		c-3.435,0-5.496-1.57-5.692-3.632c-0.393,2.454,1.374,4.613,4.515,4.613C70.54,52.811,72.404,52.222,74.858,51.044z M68.283,76.659
		c0-5.496,3.828-9.127,9.422-11.188c2.748-0.981,6.281-1.864,10.6-3.926c4.318-2.061,6.575-5.594,6.575-10.6
		c0-3.926-1.374-7.066-4.22-8.146c1.766,1.178,2.061,2.355,2.061,3.533c0,1.374-1.08,2.355-2.159,2.355
		c-0.981,0-1.472-0.688-1.864-1.57c0.49,0.49,0.883,0.687,1.472,0.687c0.981,0,1.472-0.687,1.472-1.57
		c0-2.649-2.257-3.729-5.397-3.729c-1.656,0-3.955,0.143-6.357,0.364c0.218,0.182,0.441,0.333,0.665,0.421
		c0.589,0.295,1.275,0.393,2.257,0.491c1.374,0.196,2.65,0.294,3.729,0.687c-1.178,0-2.257,0.196-3.238,0.491
		c-0.295,0.981-0.688,1.472-1.374,1.472c-0.688,0-1.178-0.393-1.57-1.079c-0.318-0.637-0.638-1.532-0.923-2.44
		c-1.439,0.138-2.903,0.301-4.279,0.478l0.393,4.515c0.295-0.393,1.275-0.883,2.355-0.883c2.453,0,4.318,1.865,4.318,4.122
		c0,2.454-1.57,3.533-3.533,3.533c-1.178,0-2.258-0.491-2.846-0.883l0.195,3.631c2.847-0.491,5.398-0.883,8.637-1.276
		c3.926-0.589,7.558-1.472,7.656-7.557c0.195,0.393,0.49,1.276,0.49,2.061c0,4.024-2.453,6.772-6.379,8.048
		c-4.318,1.374-9.619,2.65-13.25,3.926c-5.104,1.767-9.029,5.692-9.029,10.992c0,5.398,2.355,9.912,8.244,12.17
		C69.264,82.94,68.283,80.095,68.283,76.659z M74.073,79.702c0-4.515,3.141-7.655,7.655-9.618c3.631-1.57,6.085-2.748,9.127-4.318
		c4.81-2.552,6.871-7.459,6.871-12.366c0-4.81-1.768-8.637-4.516-9.913c1.57,1.374,2.748,4.024,2.748,7.459
		c0,5.3-2.355,9.521-7.164,11.777c-3.337,1.57-6.379,2.454-10.305,3.828c-5.301,1.767-8.833,5.3-8.833,10.207
		c0,3.926,2.159,8.44,5.693,9.618l1.766,0.589C74.957,84.903,74.073,82.45,74.073,79.702z M79.275,83.137
		c0-3.926,2.649-6.575,5.986-8.342c2.944-1.57,5.201-2.65,7.557-4.221c5.889-3.827,7.95-8.44,7.95-14.329
		c0-4.22-1.472-8.931-5.005-11.581c1.766,2.062,3.042,4.81,3.042,8.833c0,5.3-1.767,10.109-7.165,13.151
		c-2.846,1.669-5.986,3.141-9.422,4.613c-3.336,1.374-6.771,4.22-6.771,8.637c0,3.729,2.061,6.575,4.809,7.949l1.57,0.785
		C80.453,87.357,79.275,85.591,79.275,83.137z M94.88,37.696h-2.454c-0.195,0.981-1.275,1.767-2.257,1.767
		c-1.178,0-2.062-0.688-2.257-1.767h-2.65c-0.196,0.981-1.178,1.767-2.258,1.767c-1.178,0-1.963-0.688-2.158-1.767h-2.454
		l1.669,4.023c1.864-0.098,4.22-0.196,5.889-0.196c3.238,0,5.005,0.393,6.771,0.785L94.88,37.696z M84.477,85.983
		c0-2.062,0.589-3.337,1.668-4.515c2.847-3.337,7.066-4.318,10.698-7.263c4.711-3.926,7.066-9.226,7.066-15.311
		c0-5.104-2.257-9.324-5.005-12.072c1.668,2.258,2.943,5.692,2.943,9.422c0,6.38-1.766,10.992-8.146,15.311
		c-2.062,1.374-5.3,2.944-7.852,4.318c-2.649,1.473-5.202,3.926-5.202,7.263c0,3.533,2.258,5.889,5.693,7.361
		C85.065,89.32,84.477,87.651,84.477,85.983z M92.916,102.275c-0.883-5.104-2.846-8.637-6.869-10.992
		c-0.785-0.49-1.473,0.098-0.884,0.589c1.276,1.178,3.926,3.729,4.81,6.575c-0.884,0-1.276,0.59-1.276,1.276
		c0,1.669,1.767,2.748,2.944,2.748C92.131,102.472,92.523,102.373,92.916,102.275z M97.824,130.442c0-1.57,1.473-2.748,3.337-2.748
		c2.454,0,3.827,1.57,5.889,1.57c2.454,0,3.141-1.472,6.575-1.472c2.553,0,4.417,1.57,4.516,3.337
		c1.963-0.785,3.336-3.141,3.336-8.048c0-6.281-0.883-14.035-1.864-19.924c3.042-0.196,4.22-1.374,4.22-3.141
		c0-0.687-0.195-1.275-0.393-1.668c-2.846,1.374-5.889,2.159-9.422,2.159c-2.453,0-5.691-0.295-7.262-0.884
		c-0.785-3.926-2.945-7.263-4.613-9.029c1.767,0.785,4.907,1.57,7.655,1.57c11.679,0,20.414-8.146,20.414-16.881
		c0-5.3-3.337-9.127-8.735-13.053l-1.963,1.374c5.889,4.023,7.852,7.753,7.852,11.286c0,4.81-4.023,8.637-9.127,8.637
		s-9.127-3.827-9.127-8.637c0-4.612,3.042-7.753,8.439-11.385c1.276-0.785,2.748-1.864,4.123-2.846
		c2.158-1.669,4.809-4.613,4.318-7.459c1.57-0.393,2.649-1.276,2.649-3.436c0-2.355-1.963-4.023-4.122-4.023
		c-1.57,0-2.552,0.393-3.238,0.687c1.766,1.57,2.649,3.632,2.649,5.398c0,2.846-1.178,4.809-4.122,6.87
		c-2.061,1.472-4.416,2.944-6.674,4.612c-4.515,3.337-6.969,6.772-6.969,11.483c0,6.87,5.595,10.796,10.895,10.796
		c3.043,0,5.692-0.589,8.146-2.355c-2.847,3.238-8.637,6.281-14.82,6.281c-7.754,0-13.151-5.3-13.151-11.581
		c0-1.374,0.196-2.355,0.393-2.847c-3.827,3.436-7.558,4.024-10.207,6.969c-1.178,1.275-1.57,2.552-1.57,4.023
		c0,1.865,0.884,3.533,2.159,4.711c1.374,1.178,2.846,2.65,3.631,3.926c1.276,1.963,1.963,4.318,2.553,6.674
		c1.373,5.496,5.397,7.754,10.501,7.754c1.669,0,4.81-0.295,6.38-0.785c-0.197,0.687-0.197,1.275,0,2.061
		c0.687,2.944,1.178,5.987,1.275,8.932c0,0.981-0.393,1.472-1.275,1.864c-1.08,0.491-3.141,0.785-4.613,0.589
		c-0.883-0.098-1.374-0.393-1.767-1.472c-0.785-2.258-2.257-3.632-4.024-3.632c-1.864,0-2.846,1.374-3.141,2.355
		c3.043,0,5.006,1.57,6.086,3.632c-1.768-1.57-3.533-2.552-5.693-2.552c-1.963,0-3.141,1.275-3.141,2.649
		c0,0.688,0.099,1.57,0.59,2.062c0.687-0.981,2.355-1.57,3.631-1.57c2.061,0,3.337,1.079,3.828,2.061
		c-1.08-0.785-2.16-1.079-3.436-1.079c-1.963,0-3.729,1.472-3.729,3.435s0.981,3.533,2.649,4.417
		C98.021,131.62,97.824,131.031,97.824,130.442z M117.453,58.993c-3.238-2.355-4.416-4.318-4.416-7.164
		c0-1.767,0.883-3.828,2.649-5.398c-0.687-0.294-1.669-0.687-3.239-0.687c-2.158,0-4.121,1.668-4.121,4.023
		c0,2.159,1.079,3.043,2.649,3.436c-0.491,2.748,1.963,5.496,4.417,7.36L117.453,58.993z M125.992,74.893
		c0-4.122-2.355-7.066-7.558-10.6c-5.3,3.533-7.95,6.281-7.95,10.6c0,4.122,3.436,7.459,7.754,7.459S125.992,79.015,125.992,74.893z
		"/>
</g>
</svg>
